# Blender 3.5.1
# www.blender.org
mtllib expendedora.mtl
o Box003
v -0.550000 0.000000 0.300000
v 0.550000 0.000000 0.300000
v -0.600000 -0.000000 -0.250000
v 0.600000 -0.000000 -0.250000
v -0.550000 2.000000 0.300000
v 0.600000 2.000000 0.250000
v -0.600000 2.000000 -0.250000
v 0.550000 2.000000 -0.300000
v -0.600000 0.000000 0.250000
v 0.600000 0.000000 0.250000
v -0.550000 -0.000000 -0.300000
v 0.550000 -0.000000 -0.300000
v -0.600000 2.000000 0.250000
v 0.550000 2.000000 0.300000
v -0.550000 2.000000 -0.300000
v 0.600000 2.000000 -0.250000
v -0.587500 0.000000 0.287500
v 0.587500 0.000000 0.287500
v -0.587500 -0.000000 -0.287500
v 0.587500 -0.000000 -0.287500
v -0.587500 2.000000 0.287500
v 0.587500 2.000000 0.287500
v -0.587500 2.000000 -0.287500
v 0.587500 2.000000 -0.287500
v -0.451000 0.000000 0.300000
v -0.451000 2.000000 0.300000
v 0.154605 0.000000 0.300000
v 0.154605 2.000000 0.300000
v -0.451000 1.810000 0.300000
v 0.154605 1.810000 0.300000
v -0.451000 0.615400 0.300000
v 0.154605 0.615400 0.300000
v 0.154605 1.810000 0.250000
v -0.451000 1.810000 0.250000
v -0.451000 0.615400 0.250000
v 0.154605 0.615400 0.250000
vn -0.0000 -1.0000 -0.0000
vn -0.0000 1.0000 -0.0000
vn -0.0000 -0.0000 1.0000
vn 1.0000 -0.0000 -0.0000
vn -0.0000 -0.0000 -1.0000
vn -1.0000 -0.0000 -0.0000
vn 0.3162 -0.0000 0.9487
vn -0.3162 -0.0000 0.9487
vn 0.9487 -0.0000 -0.3162
vn -0.3162 -0.0000 -0.9487
vn 0.9487 -0.0000 0.3162
vn -0.9487 -0.0000 0.3162
vn 0.3162 -0.0000 -0.9487
vn -0.9487 -0.0000 -0.3162
vt 0.841696 0.010000
vt 0.010000 0.628438
vt 0.561596 0.010000
vt 0.010000 0.348338
vt 0.854428 0.150050
vt 0.010000 0.804445
vt 0.548864 0.150050
vt 0.010000 0.853133
vt 0.841696 0.491571
vt 0.519273 0.628438
vt 0.548864 0.478839
vt 0.519273 0.980451
vt 0.854428 0.351521
vt 0.519273 0.804445
vt 0.561596 0.338789
vt 0.519273 0.299649
vt 0.854428 0.022732
vt 0.010000 0.677126
vt 0.548864 0.022732
vt 0.010000 0.980451
vt 0.841696 0.162782
vt 0.010000 0.019549
vt 0.561596 0.162782
vt 0.010000 0.299649
vt 0.854428 0.478839
vt 0.519273 0.677126
vt 0.561596 0.491571
vt 0.519273 0.348338
vt 0.841696 0.338789
vt 0.519273 0.019549
vt 0.548864 0.351521
vt 0.519273 0.853133
vt 0.851245 0.013183
vt 0.010000 0.637987
vt 0.010000 0.667577
vt 0.552047 0.013183
vt 0.010000 0.338789
vt 0.010000 0.990000
vt 0.851245 0.159599
vt 0.010000 0.010000
vt 0.010000 0.813993
vt 0.552047 0.159599
vt 0.010000 0.843584
vt 0.010000 0.309198
vt 0.851245 0.488388
vt 0.519273 0.637987
vt 0.519273 0.667577
vt 0.552047 0.488388
vt 0.519273 0.338789
vt 0.519273 0.990000
vt 0.851245 0.341972
vt 0.519273 0.010000
vt 0.519273 0.813993
vt 0.552047 0.341972
vt 0.519273 0.843584
vt 0.519273 0.309198
vt 0.816487 0.010000
vt 0.010000 0.603229
vt 0.816487 0.491571
vt 0.519273 0.603229
vt 0.662278 0.010000
vt 0.010000 0.449020
vt 0.662278 0.491571
vt 0.519273 0.449020
vt 0.470892 0.603229
vt 0.470892 0.449020
vt 0.166703 0.603229
vt 0.166703 0.449020
vt 0.470892 0.449020
vt 0.470892 0.603229
vt 0.166703 0.603229
vt 0.166703 0.449020
s 1
usemtl Material_#30
f 1/1/1 17/33/1 9/17/1 3/5/1 19/39/1 11/21/1 12/23/1 20/42/1 4/7/1 10/19/1 18/36/1 2/3/1 27/61/1 25/57/1
f 13/25/2 21/45/2 5/9/2 26/59/2 28/63/2 14/27/2 22/48/2 6/11/2 16/31/2 24/54/2 8/15/2 15/29/2 23/51/2 7/13/2
f 1/2/3 25/58/3 31/67/3 29/65/3 26/60/3 5/10/3
f 10/20/4 4/8/4 16/32/4 6/12/4
f 12/24/5 11/22/5 15/30/5 8/16/5
f 3/6/6 9/18/6 13/26/6 7/14/6
f 2/4/7 18/37/7 22/49/7 14/28/7
f 5/10/8 21/46/8 17/34/8 1/2/8
f 4/8/9 20/43/9 24/55/9 16/32/9
f 11/22/10 19/40/10 23/52/10 15/30/10
f 18/38/11 10/20/11 6/12/11 22/50/11
f 21/47/12 13/26/12 9/18/12 17/35/12
f 20/44/13 12/24/13 8/16/13 24/56/13
f 19/41/14 3/6/14 7/14/14 23/53/14
f 25/58/3 27/62/3 32/68/3 31/67/3
f 27/62/3 2/4/3 14/28/3 28/64/3 30/66/3 32/68/3
f 30/66/3 28/64/3 26/60/3 29/65/3
f 36/72/3 33/69/3 34/70/3 35/71/3
f 30/66/1 29/65/1 34/70/1 33/69/1
f 29/65/4 31/67/4 35/71/4 34/70/4
f 31/67/2 32/68/2 36/72/2 35/71/2
f 32/68/6 30/66/6 33/69/6 36/72/6
