# Blender 3.5.1
# www.blender.org
mtllib miLapidaC.mtl
o Gravestone01
v -0.374651 0.000000 0.507390
v -0.374651 0.207460 0.507390
v -0.374651 -0.000000 -0.507390
v -0.374651 0.207460 -0.507390
v 0.374651 0.000000 0.507390
v 0.374651 0.207460 0.507390
v 0.374651 -0.000000 -0.507390
v 0.374651 0.207460 -0.507390
v -0.270476 0.232888 0.366306
v -0.270476 0.232888 -0.366306
v 0.270476 0.232888 -0.366306
v 0.270476 0.232888 0.366306
v -0.270476 0.384247 0.366306
v -0.270476 0.384247 -0.366306
v 0.270476 0.384247 -0.366306
v 0.270476 0.384247 0.366306
v -0.169447 0.410483 0.229482
v -0.169447 0.410483 -0.229482
v 0.169447 0.410483 -0.229482
v 0.169447 0.410483 0.229482
v -0.169447 0.552992 0.229482
v -0.169447 0.552991 -0.229482
v 0.169447 0.552991 -0.229482
v 0.169447 0.552992 0.229482
v -0.067026 0.581186 0.090774
v -0.067026 0.581186 -0.090774
v 0.067026 0.581186 -0.090774
v 0.067026 0.581186 0.090774
v -0.067026 1.912203 0.090773
v -0.067026 1.912203 -0.090774
v 0.067026 1.912203 -0.090774
v 0.067026 1.912203 0.090773
v 0.067026 1.489642 0.337126
v 0.067026 1.668746 0.337126
v 0.067026 1.668746 -0.337127
v 0.067026 1.489642 -0.337127
v -0.067026 1.668746 0.090773
v -0.067026 1.489642 0.090773
v -0.067026 1.489642 -0.090774
v -0.067026 1.668746 -0.090774
v 0.067026 1.668746 0.090773
v 0.067026 1.489642 0.090773
v 0.067026 1.489642 -0.090774
v 0.067026 1.668746 -0.090774
v -0.067026 1.489642 -0.337127
v -0.067026 1.668746 -0.337127
v -0.067026 1.668746 0.337126
v -0.067026 1.489642 0.337126
vn -0.7071 -0.0000 0.7071
vn -0.5942 0.5370 0.5987
vn -0.5942 0.5370 -0.5987
vn -0.7071 -0.0000 -0.7071
vn 0.5942 0.5370 -0.5987
vn 0.7071 -0.0000 -0.7071
vn 0.5942 0.5370 0.5987
vn 0.7071 -0.0000 0.7071
vn 0.3977 0.8436 0.3608
vn -0.3977 0.8436 0.3608
vn 0.3977 0.8436 -0.3608
vn 0.5953 0.5344 -0.6000
vn 0.5953 0.5344 0.6000
vn -0.3977 0.8436 -0.3608
vn 0.4035 0.8392 -0.3646
vn 0.4035 0.8392 0.3646
vn -0.5953 0.5344 0.6000
vn -0.5953 0.5344 -0.6000
vn -0.4035 0.8392 0.3646
vn 0.5963 0.5318 0.6013
vn -0.5963 0.5318 0.6013
vn -0.4035 0.8392 -0.3646
vn 0.4092 0.8348 0.3683
vn -0.4092 0.8348 0.3683
vn -0.5963 0.5318 -0.6013
vn 0.5963 0.5318 -0.6013
vn -0.4092 0.8348 -0.3683
vn 0.4092 0.8348 -0.3683
vn 0.9045 -0.3015 0.3015
vn -0.9045 -0.3015 0.3015
vn 0.5774 0.5774 -0.5774
vn -0.5774 0.5774 -0.5774
vn -0.5774 0.5774 0.5774
vn 0.5774 0.5774 0.5774
vn -0.9045 -0.3015 -0.3015
vn 0.9045 0.3015 0.3015
vn 0.9045 0.3015 -0.3015
vn 0.9045 -0.3015 -0.3015
vn 0.5774 -0.5774 -0.5774
vn -0.5774 -0.5774 -0.5774
vn -0.9045 0.3015 -0.3015
vn -0.9045 0.3015 0.3015
vn 0.5774 -0.5774 0.5774
vn -0.5774 -0.5774 0.5774
vt 0.797267 0.164776
vt 0.794390 0.164776
vt 0.846639 0.164776
vt 0.745018 0.164776
vt 0.164776 0.164787
vt 0.797267 0.406274
vt 0.846639 0.406274
vt 0.164776 0.407388
vt 0.794390 0.343095
vt 0.745018 0.343095
vt 0.344210 0.164776
vt 0.797267 0.584594
vt 0.794390 0.584594
vt 0.846639 0.584594
vt 0.745018 0.584594
vt 0.344210 0.407395
vt 0.190008 0.198765
vt 0.479850 0.597366
vt 0.554769 0.597366
vt 0.190025 0.373423
vt 0.479850 0.771714
vt 0.554769 0.900450
vt 0.318979 0.373412
vt 0.479850 0.900450
vt 0.318961 0.198746
vt 0.554769 0.726103
vt 0.515871 0.597366
vt 0.518748 0.597366
vt 0.347088 0.597366
vt 0.515871 0.771714
vt 0.347088 0.772886
vt 0.518748 0.900450
vt 0.515871 0.900450
vt 0.476972 0.772865
vt 0.518748 0.726103
vt 0.476972 0.597376
vt 0.912544 0.621243
vt 0.371621 0.630416
vt 0.984372 0.957445
vt 0.371655 0.739862
vt 0.984372 0.848220
vt 0.452438 0.739825
vt 0.984372 0.767570
vt 0.912544 0.811118
vt 0.452404 0.630390
vt 0.912544 0.701894
vt 0.878630 0.621243
vt 0.950458 0.957445
vt 0.481605 0.001453
vt 0.950458 0.848220
vt 0.481605 0.111814
vt 0.950458 0.767570
vt 0.878630 0.811118
vt 0.563345 0.111856
vt 0.878630 0.701894
vt 0.563345 0.001439
vt 0.219724 0.864617
vt 0.318195 0.103271
vt 0.506613 0.035005
vt 0.318195 0.060066
vt 0.321073 0.129996
vt 0.506510 0.078182
vt 0.538340 0.078282
vt 0.103271 0.164776
vt 0.321073 0.161898
vt 0.538446 0.035094
vt 0.187822 0.864617
vt 0.060066 0.164776
vt 0.001439 0.103271
vt 0.915678 0.382592
vt 0.915678 0.425797
vt 0.001439 0.060066
vt 0.103271 0.481532
vt 0.947580 0.425797
vt 0.060066 0.481532
vt 0.947580 0.382592
vt 0.947580 0.223403
vt 0.001439 0.380971
vt 0.947580 0.266027
vt 0.001439 0.423594
vt 0.947580 0.542362
vt 0.161898 0.423594
vt 0.947580 0.584985
vt 0.161898 0.380971
vt 0.915678 0.324654
vt 0.059377 0.103271
vt 0.219724 0.648422
vt 0.915678 0.164776
vt 0.102000 0.103271
vt 0.537268 0.129996
vt 0.915678 0.643613
vt 0.102000 0.060066
vt 0.915678 0.483735
vt 0.059377 0.060066
vt 0.947580 0.324654
vt 0.060066 0.423594
vt 0.187822 0.648422
vt 0.947580 0.164776
vt 0.060066 0.380971
vt 0.537268 0.161898
vt 0.947580 0.643613
vt 0.103271 0.380971
vt 0.947580 0.483735
vt 0.103271 0.423594
vt 0.915678 0.584985
vt 0.102000 0.001439
vt 0.915678 0.542362
vt 0.059377 0.001439
vt 0.915678 0.266027
vt 0.059377 0.161898
vt 0.915678 0.223403
vt 0.102000 0.161898
s 1
usemtl GraveSet01
f 1/1/1 2/3/2 4/7/3 3/6/4
f 3/6/4 4/7/3 8/14/5 7/12/6
f 7/13/6 8/15/5 6/10/7 5/9/8
f 5/9/8 6/10/7 2/4/2 1/2/1
f 2/5/2 6/11/7 12/25/9 9/17/10
f 12/26/9 11/22/11 15/32/12 16/35/13
f 8/16/5 4/8/3 10/20/14 11/23/11
f 6/11/7 8/16/5 11/23/11 12/25/9
f 4/8/3 2/5/2 9/17/10 10/20/14
f 16/36/13 15/34/12 19/42/15 20/45/16
f 10/21/14 9/18/10 13/27/17 14/30/18
f 9/19/10 12/26/9 16/35/13 13/28/17
f 11/24/11 10/21/14 14/30/18 15/33/12
f 17/37/19 20/46/16 24/55/20 21/47/21
f 14/31/18 13/29/17 17/38/19 18/40/22
f 13/29/17 16/36/13 20/45/16 17/38/19
f 15/34/12 14/31/18 18/40/22 19/42/15
f 24/56/20 28/66/23 25/59/24 21/49/21
f 19/43/15 18/41/22 22/50/25 23/52/26
f 20/46/16 19/44/15 23/53/26 24/55/20
f 18/41/22 17/39/19 21/48/21 22/50/25
f 22/51/25 26/62/27 27/63/28 23/54/26
f 23/54/26 27/63/28 28/66/23 24/56/20
f 25/57/24 28/67/23 42/97/29 38/87/30
f 31/74/31 30/71/32 29/70/33 32/76/34
f 26/60/27 25/58/24 38/89/30 39/92/35
f 41/96/36 44/104/37 31/73/31 32/75/34
f 28/68/23 27/64/28 43/102/38 42/99/29
f 46/107/32 35/81/31 36/83/39 45/105/40
f 44/103/37 40/93/41 30/71/32 31/74/31
f 27/65/28 26/61/27 39/90/35 43/100/38
f 40/94/41 37/86/42 29/69/33 30/72/32
f 44/104/37 41/96/36 42/99/29 43/102/38
f 41/95/36 37/85/42 47/109/33 34/79/34
f 38/88/30 42/98/29 33/77/43 48/111/44
f 37/86/42 40/94/41 39/92/35 38/89/30
f 37/85/42 41/95/36 32/76/34 29/70/33
f 34/79/34 47/109/33 48/111/44 33/77/43
f 40/93/41 44/103/37 35/81/31 46/107/32
f 37/86/42 38/89/30 48/112/44 47/110/33
f 43/101/38 39/91/35 45/105/40 36/83/39
f 39/92/35 40/94/41 46/108/32 45/106/40
f 42/99/29 41/96/36 34/80/34 33/78/43
f 44/104/37 43/102/38 36/84/39 35/82/31
f 21/49/21 25/59/24 26/62/27 22/51/25
