# Blender 3.5.1
# www.blender.org
mtllib soda.mtl
o pCube1
v -0.339275 0.223813 0.339275
v 0.339275 0.223813 0.339275
v -0.299978 1.594992 0.299946
v 0.299915 1.594992 0.299946
v -0.299978 1.594992 -0.299947
v 0.299915 1.594992 -0.299947
v -0.339275 0.223813 -0.339275
v 0.339275 0.223813 -0.339275
v 0.000000 0.223813 0.455144
v 0.000000 0.223813 -0.455144
v -0.000031 1.594992 -0.402384
v -0.000031 1.594992 0.402383
v -0.391540 1.594992 -0.000000
v 0.391477 1.594992 -0.000000
v 0.442842 0.223813 -0.000000
v -0.442842 0.223813 -0.000000
v -0.183774 0.223813 0.419302
v -0.183774 0.223813 -0.419302
v -0.162502 1.594992 -0.370697
v -0.162502 1.594992 0.370696
v -0.371501 1.594992 0.148713
v 0.379466 1.594992 0.140048
v 0.429257 0.223813 0.158411
v -0.420177 0.223813 0.168212
v 0.183774 0.223813 0.419302
v 0.183774 0.223813 -0.419302
v 0.162440 1.594992 -0.370697
v 0.162440 1.594992 0.370696
v -0.420177 0.223813 -0.175763
v 0.429257 0.223813 -0.175763
v 0.379466 1.594992 -0.155389
v -0.371501 1.594992 -0.155389
v -0.339275 1.465477 0.339275
v -0.183774 1.465477 0.419302
v 0.000000 1.465477 0.455143
v 0.183774 1.465477 0.419302
v 0.339275 1.465477 0.339275
v 0.429257 1.465477 0.158410
v 0.442842 1.465477 -0.000000
v 0.429257 1.465477 -0.175763
v 0.339275 1.465477 -0.339275
v 0.183774 1.465477 -0.419302
v 0.000000 1.465477 -0.455144
v -0.183774 1.465477 -0.419302
v -0.339275 1.465477 -0.339275
v -0.420177 1.465477 -0.175764
v -0.442842 1.465477 -0.000000
v -0.420177 1.465477 0.168212
v -0.320720 1.544444 -0.320689
v -0.173738 1.544444 -0.396332
v -0.000031 1.544444 -0.430210
v 0.173675 1.544444 -0.396332
v 0.320658 1.544444 -0.320689
v 0.405710 1.544444 -0.166135
v 0.418552 1.544444 -0.000000
v 0.405710 1.544444 0.149732
v 0.320658 1.544444 0.320689
v 0.173675 1.544444 0.396332
v -0.000031 1.544444 0.430210
v -0.173738 1.544444 0.396332
v -0.320720 1.544444 0.320689
v -0.397190 1.544444 0.158997
v -0.418614 1.544444 -0.000000
v -0.397190 1.544444 -0.166135
v 0.312284 1.534289 0.310111
v 0.169591 1.534289 0.388260
v 0.171964 1.496941 0.393648
v 0.316636 1.496940 0.314415
v 0.316636 1.496941 -0.315509
v 0.171964 1.496940 -0.393649
v 0.169591 1.534289 -0.388260
v 0.312284 1.534289 -0.311190
v 0.395517 1.534289 -0.163141
v 0.411246 1.534289 -0.001079
v 0.416972 1.496940 -0.001094
v 0.401025 1.496940 -0.165405
v -0.410164 1.534289 -0.000470
v -0.388226 1.534290 -0.163141
v -0.393595 1.496941 -0.165405
v -0.415838 1.496940 -0.000476
v -0.000005 1.496940 -0.425802
v -0.171974 1.496940 -0.393649
v -0.169639 1.534289 -0.388260
v -0.000024 1.534289 -0.419974
v -0.000024 1.534289 0.419973
v -0.169639 1.534289 0.388260
v -0.171974 1.496941 0.393648
v -0.000005 1.496941 0.425802
v 0.395517 1.534289 0.149117
v 0.401025 1.496941 0.151186
v -0.388226 1.534289 0.157038
v -0.393595 1.496940 0.159217
v -0.311766 1.534290 -0.311190
v -0.316074 1.496940 -0.315509
v -0.316074 1.496940 0.315033
v -0.311766 1.534289 0.310721
v 0.372990 1.550749 -0.157829
v 0.161720 1.550749 -0.175696
v 0.185124 1.550749 0.001046
v 0.385271 1.550749 0.001046
v -0.015023 1.550749 -0.199100
v -0.191766 1.550749 -0.175696
v -0.215170 1.550749 0.001046
v -0.015023 1.550749 0.001046
v -0.196447 1.550749 0.162960
v -0.015023 1.550749 0.181683
v 0.166400 1.550749 0.162960
v 0.372990 1.550749 0.144237
v -0.389425 1.550749 0.001046
v -0.370262 1.550749 -0.147553
v -0.370262 1.550749 0.143262
v -0.321700 1.550749 0.307723
v -0.181140 1.550749 0.380061
v -0.015023 1.550749 0.412459
v 0.151094 1.550749 0.380061
v 0.291654 1.550749 0.307723
v 0.151094 1.550749 -0.377968
v 0.291654 1.550749 -0.305631
v -0.015023 1.550749 -0.410367
v -0.181140 1.550749 -0.377968
v -0.301864 1.550749 -0.285794
v 0.411850 0.165074 -0.000000
v 0.399215 0.165074 -0.163463
v 0.399215 0.165074 0.147324
v -0.411850 0.165074 -0.000000
v -0.390771 0.165074 0.156440
v -0.390771 0.165074 -0.163463
v 0.170913 0.165074 0.389957
v 0.315531 0.165074 0.315531
v -0.170913 0.165074 0.389957
v 0.000000 0.165074 0.423290
v -0.315531 0.165074 0.315531
v -0.315531 0.165074 -0.315531
v -0.170913 0.165074 -0.389957
v 0.000000 0.165074 -0.423290
v 0.170913 0.165074 -0.389957
v 0.315531 0.165074 -0.315531
v 0.384054 0.187081 -0.000000
v 0.192027 0.187081 -0.000000
v 0.169572 0.187081 -0.169572
v 0.372272 0.187081 -0.152430
v -0.192027 0.187081 -0.000000
v -0.169572 0.187081 -0.169572
v 0.000000 0.187081 -0.192027
v 0.000000 0.187081 -0.000000
v 0.372272 0.187081 0.137381
v 0.174063 0.187081 0.155345
v 0.000000 0.187081 0.173309
v -0.174063 0.187081 0.155345
v -0.384054 0.187081 -0.000000
v -0.364397 0.187081 0.145881
v -0.364397 0.187081 -0.152430
v 0.159378 0.187081 0.363639
v 0.294235 0.187081 0.294235
v -0.159378 0.187081 0.363639
v 0.000000 0.187081 0.394722
v -0.294235 0.187081 0.294235
v -0.294235 0.187081 -0.294236
v -0.159378 0.187081 -0.363639
v 0.000000 0.187081 -0.394722
v 0.159378 0.187081 -0.363639
v 0.294235 0.187081 -0.294236
vn 0.7229 -0.1390 0.6768
vn 0.3267 -0.1039 0.9394
vn 0.2887 0.4737 0.8321
vn 0.6283 0.5088 0.5886
vn -0.2293 0.9706 0.0731
vn -0.0000 1.0000 -0.0000
vn -0.2043 0.9789 -0.0002
vn 0.6090 0.5063 -0.6105
vn 0.2872 0.4710 -0.8341
vn 0.3243 -0.0990 -0.9408
vn 0.7003 -0.1337 -0.7013
vn -0.1042 -0.9946 -0.0000
vn -0.0000 -1.0000 -0.0000
vn -0.1198 -0.9922 0.0353
vn 0.9481 -0.1058 -0.3000
vn 0.9975 -0.0701 -0.0010
vn 0.8954 0.4452 -0.0006
vn 0.8374 0.4791 -0.2632
vn -0.9972 -0.0745 -0.0006
vn -0.9494 -0.0990 -0.2979
vn -0.8435 0.4681 -0.2634
vn -0.8944 0.4472 -0.0004
vn -0.0000 0.4657 -0.8850
vn -0.2874 0.4717 -0.8336
vn -0.3247 -0.1009 -0.9404
vn -0.0000 -0.0905 -0.9959
vn -0.0000 -0.0905 0.9959
vn -0.3258 -0.1030 0.9398
vn -0.2881 0.4729 0.8327
vn -0.0000 0.4657 0.8850
vn -0.2369 0.9686 -0.0761
vn 0.9471 -0.1055 0.3030
vn 0.8395 0.4737 0.2662
vn -0.1212 -0.9920 -0.0361
vn -0.9491 -0.0984 0.2991
vn -0.8445 0.4656 0.2646
vn 0.1128 -0.9936 -0.0000
vn 0.1184 -0.9923 -0.0353
vn 0.1167 -0.9926 0.0346
vn -0.7120 -0.1346 -0.6892
vn -0.6194 0.5064 -0.5999
vn 0.2519 0.9678 -0.0005
vn 0.2601 0.9627 0.0747
vn 0.2567 0.9643 -0.0651
vn -0.6279 0.5073 0.5902
vn -0.7219 -0.1369 0.6783
vn 0.2321 0.9548 -0.1856
vn 0.0789 0.9742 -0.2114
vn 0.0086 0.9768 -0.2141
vn -0.0646 0.9761 -0.2073
vn -0.1900 0.9617 -0.1976
vn -0.0344 -0.9942 -0.1024
vn -0.1050 -0.9896 -0.0986
vn 0.0347 -0.9940 -0.1034
vn -0.0000 -0.9941 -0.1087
vn 0.1061 -0.9894 -0.0994
vn 0.1065 -0.9889 0.1031
vn 0.0372 -0.9932 0.1107
vn 0.0001 -0.9931 0.1175
vn -0.0370 -0.9932 0.1102
vn -0.1020 -0.9894 0.1032
vn -0.0701 0.9721 0.2240
vn -0.1890 0.9600 0.2067
vn 0.0094 0.9723 0.2337
vn 0.0974 0.9690 0.2271
vn 0.2495 0.9467 0.2036
vn -0.7278 -0.0225 0.6854
vn -0.3232 -0.0227 0.9460
vn -0.3234 0.0211 0.9460
vn -0.7278 0.0204 0.6855
vn -0.0000 0.0200 0.9998
vn -0.0000 -0.0223 0.9998
vn 0.3234 0.0212 0.9460
vn 0.3232 -0.0227 0.9460
vn 0.7280 0.0205 0.6853
vn 0.7281 -0.0226 0.6851
vn 0.9561 -0.0225 0.2921
vn 0.9562 0.0204 0.2920
vn 0.9998 0.0203 -0.0000
vn 0.9997 -0.0225 -0.0000
vn 0.9561 0.0205 -0.2922
vn 0.9561 -0.0226 -0.2922
vn 0.7042 0.0208 -0.7097
vn 0.7042 -0.0227 -0.7097
vn 0.3232 -0.0227 -0.9460
vn 0.3233 0.0210 -0.9461
vn -0.0000 -0.0223 -0.9998
vn -0.0000 0.0200 -0.9998
vn -0.3232 -0.0227 -0.9460
vn -0.3233 0.0210 -0.9461
vn -0.7173 0.0205 -0.6964
vn -0.7173 -0.0226 -0.6964
vn -0.9563 -0.0225 -0.2917
vn -0.9562 0.0205 -0.2921
vn -0.9998 0.0198 -0.0000
vn -0.9998 -0.0222 0.0028
vn -0.9562 0.0205 0.2921
vn -0.9561 -0.0224 0.2921
vn -0.2968 0.9122 -0.2826
vn -0.1020 0.9242 -0.3680
vn -0.3149 0.2791 -0.9071
vn -0.6847 0.2933 -0.6672
vn -0.0000 0.2900 -0.9570
vn -0.0706 0.9185 -0.3890
vn 0.3148 0.2801 -0.9069
vn 0.0666 0.9391 -0.3371
vn 0.6737 0.2918 -0.6790
vn 0.1993 0.9413 -0.2723
vn 0.2912 0.9519 -0.0950
vn 0.9140 0.2881 -0.2857
vn 0.2526 0.9676 0.0029
vn 0.9586 0.2846 0.0007
vn 0.2908 0.9514 0.1011
vn 0.9154 0.2880 0.2812
vn 0.6934 0.2926 0.6584
vn 0.2035 0.9404 0.2726
vn 0.0675 0.9321 0.3558
vn 0.3154 0.2762 0.9078
vn -0.0765 0.9067 0.4147
vn -0.0000 0.2900 0.9570
vn -0.2135 0.8728 0.4389
vn -0.3152 0.2775 0.9075
vn -0.6934 0.2936 0.6581
vn -0.3608 0.8718 0.3315
vn -0.3579 0.9209 0.1544
vn -0.9169 0.2809 0.2836
vn -0.3389 0.9408 0.0073
vn -0.9584 0.2855 0.0004
vn -0.3281 0.9420 -0.0710
vn -0.9161 0.2814 -0.2854
vn 0.5820 -0.8132 0.0001
vn 0.5786 -0.7981 -0.1681
vn 0.5734 -0.8016 0.1690
vn -0.5961 -0.8029 0.0001
vn -0.5701 -0.8042 0.1682
vn -0.5727 -0.8024 -0.1679
vn 0.4502 -0.7866 0.4225
vn 0.1861 -0.8082 0.5587
vn -0.1862 -0.8082 0.5587
vn -0.0000 -0.7977 0.6031
vn -0.4528 -0.7846 0.4234
vn -0.1861 -0.8082 -0.5587
vn -0.4437 -0.7866 -0.4294
vn -0.0000 -0.7977 -0.6031
vn 0.1862 -0.8082 -0.5587
vn 0.4297 -0.7911 -0.4354
vt 0.622297 0.036716
vt 0.622297 0.029176
vt 0.866653 0.038097
vt 0.866653 0.030556
vt 0.621000 0.518648
vt 0.072425 0.935787
vt 0.865010 0.518443
vt 0.076928 0.582438
vt 0.380163 0.519480
vt 0.420747 0.935674
vt 0.137890 0.521350
vt 0.431364 0.587090
vt 0.375350 0.039514
vt 0.375350 0.031974
vt 0.132090 0.042998
vt 0.132090 0.035457
vt 0.744616 0.037132
vt 0.744616 0.029592
vt 0.253618 0.041018
vt 0.253618 0.033478
vt 0.258968 0.520187
vt 0.493597 0.765026
vt 0.743204 0.518519
vt 0.009518 0.758254
vt 0.500679 0.518758
vt 0.248066 0.989432
vt 0.018674 0.523188
vt 0.983502 0.519540
vt 0.254539 0.524677
vt 0.988315 0.038175
vt 0.010406 0.044149
vt 0.010406 0.036609
vt 0.988315 0.030635
vt 0.496537 0.037385
vt 0.496537 0.029844
vt 0.681329 0.036716
vt 0.681329 0.029175
vt 0.316614 0.040093
vt 0.316614 0.032552
vt 0.320853 0.520022
vt 0.473651 0.861456
vt 0.680790 0.518923
vt 0.025844 0.854650
vt 0.557114 0.518767
vt 0.162839 0.976028
vt 0.931917 0.518447
vt 0.171868 0.532863
vt 0.934589 0.038202
vt 0.934589 0.030661
vt 0.554040 0.036691
vt 0.554040 0.029151
vt 0.807839 0.037475
vt 0.807839 0.029934
vt 0.190667 0.041896
vt 0.190667 0.034355
vt 0.197056 0.521128
vt 0.476699 0.668472
vt 0.805537 0.518845
vt 0.029141 0.662482
vt 0.436670 0.038375
vt 0.436670 0.030834
vt 0.069661 0.043710
vt 0.069661 0.036169
vt 0.075612 0.521788
vt 0.345850 0.535895
vt 0.441881 0.519268
vt 0.337532 0.978012
vt 0.621379 0.455897
vt 0.621379 0.463438
vt 0.679959 0.456332
vt 0.679959 0.463872
vt 0.743186 0.456365
vt 0.743186 0.463906
vt 0.806336 0.456418
vt 0.806336 0.463959
vt 0.864741 0.456073
vt 0.864741 0.463613
vt 0.932260 0.456945
vt 0.932260 0.464486
vt 0.986032 0.457756
vt 0.016061 0.461718
vt 0.016061 0.469259
vt 0.986032 0.465297
vt 0.075359 0.460292
vt 0.075359 0.467833
vt 0.137365 0.459142
vt 0.137365 0.466682
vt 0.195605 0.458983
vt 0.195605 0.466523
vt 0.258447 0.458389
vt 0.258447 0.465929
vt 0.321329 0.457835
vt 0.321329 0.465376
vt 0.379635 0.456955
vt 0.379635 0.464496
vt 0.440569 0.457094
vt 0.440569 0.464634
vt 0.500433 0.457048
vt 0.500433 0.464589
vt 0.557854 0.456624
vt 0.557854 0.464164
vt 0.379910 0.498563
vt 0.321503 0.498787
vt 0.258782 0.499301
vt 0.196088 0.499916
vt 0.137678 0.500498
vt 0.076045 0.501054
vt 0.017408 0.502283
vt 0.984806 0.498542
vt 0.931645 0.497662
vt 0.864759 0.497669
vt 0.806287 0.497515
vt 0.743190 0.497488
vt 0.679985 0.497518
vt 0.621261 0.497689
vt 0.557879 0.497579
vt 0.500588 0.497709
vt 0.440841 0.498111
vt 0.865473 0.491995
vt 0.805787 0.492599
vt 0.805715 0.478795
vt 0.865495 0.478585
vt 0.137240 0.481554
vt 0.196431 0.481287
vt 0.196533 0.495019
vt 0.137368 0.494968
vt 0.075944 0.495938
vt 0.017914 0.497721
vt 0.985013 0.493938
vt 0.017434 0.483946
vt 0.985441 0.480119
vt 0.075580 0.482508
vt 0.500401 0.492934
vt 0.440952 0.493125
vt 0.440953 0.479403
vt 0.500337 0.479201
vt 0.258597 0.480670
vt 0.320802 0.480156
vt 0.320971 0.493894
vt 0.258733 0.494210
vt 0.743189 0.492362
vt 0.680486 0.492584
vt 0.680568 0.478745
vt 0.743191 0.478741
vt 0.930889 0.492659
vt 0.931182 0.479143
vt 0.558093 0.492646
vt 0.557988 0.478908
vt 0.380092 0.492932
vt 0.380004 0.479437
vt 0.620872 0.478448
vt 0.620851 0.491976
vt 0.338615 0.558710
vt 0.345811 0.670837
vt 0.253039 0.656376
vt 0.254346 0.548389
vt 0.357692 0.764146
vt 0.344406 0.858090
vt 0.250179 0.869871
vt 0.251683 0.763044
vt 0.164757 0.857245
vt 0.155835 0.761270
vt 0.167697 0.665860
vt 0.178294 0.555982
vt 0.248321 0.963622
vt 0.328923 0.953906
vt 0.171157 0.952153
vt 0.088498 0.917543
vt 0.048718 0.847001
vt 0.033148 0.758737
vt 0.051684 0.670843
vt 0.093690 0.600302
vt 0.453884 0.676150
vt 0.413736 0.604144
vt 0.470060 0.764646
vt 0.451141 0.851645
vt 0.403904 0.916658
vt 0.011245 0.013374
vt 0.987193 0.007227
vt 0.746262 0.530136
vt 0.068661 0.013240
vt 0.655762 0.538477
vt 0.935021 0.007596
vt 0.827946 0.536992
vt 0.496105 0.006534
vt 0.749806 0.989087
vt 0.553249 0.004996
vt 0.836401 0.976542
vt 0.437205 0.007515
vt 0.659127 0.977856
vt 0.807231 0.006409
vt 0.964304 0.663213
vt 0.867110 0.007471
vt 0.921509 0.583476
vt 0.682325 0.005513
vt 0.965743 0.852820
vt 0.744766 0.006453
vt 0.983403 0.757872
vt 0.621740 0.005233
vt 0.924146 0.933192
vt 0.375187 0.008845
vt 0.574598 0.935889
vt 0.315493 0.009125
vt 0.531758 0.856177
vt 0.253291 0.010430
vt 0.512634 0.761484
vt 0.191119 0.010950
vt 0.530289 0.666524
vt 0.131717 0.012363
vt 0.571825 0.586169
vt 0.746387 0.549599
vt 0.747203 0.654690
vt 0.654751 0.667812
vt 0.663277 0.557020
vt 0.748809 0.864542
vt 0.656190 0.852887
vt 0.643122 0.760427
vt 0.748005 0.759597
vt 0.821397 0.555700
vt 0.832072 0.663980
vt 0.842684 0.758901
vt 0.833515 0.853997
vt 0.749637 0.969618
vt 0.829194 0.958231
vt 0.666346 0.959455
vt 0.946124 0.671106
vt 0.907241 0.598052
vt 0.947447 0.845194
vt 0.963580 0.758021
vt 0.909671 0.918817
vt 0.588870 0.921325
vt 0.549930 0.848269
vt 0.532453 0.761330
vt 0.548582 0.674136
vt 0.586361 0.600452
s 1
usemtl blinn1
f 65/119/1 66/120/2 67/121/3 68/122/4
f 97/153/5 98/154/6 99/155/6 100/156/7
f 69/123/8 70/124/9 71/125/10 72/126/11
f 138/211/12 139/212/13 140/213/13 141/214/14
f 73/127/15 74/128/16 75/130/17 76/132/18
f 77/133/19 78/134/20 79/135/21 80/136/22
f 142/215/13 143/216/13 144/217/13 145/218/13
f 81/137/23 82/138/24 83/139/25 84/140/26
f 101/157/6 102/158/6 103/159/6 104/160/6
f 85/141/27 86/142/28 87/143/29 88/144/30
f 103/159/6 105/161/6 106/162/6 104/160/6
f 100/156/7 99/155/6 107/163/6 108/164/31
f 74/129/16 89/145/32 90/146/33 75/131/17
f 146/219/34 147/220/13 139/212/13 138/211/12
f 148/221/13 149/222/13 142/215/13 145/218/13
f 91/147/35 77/133/19 80/136/22 92/148/36
f 150/223/37 142/215/13 149/222/13 151/224/38
f 152/225/39 143/216/13 142/215/13 150/223/37
f 93/149/40 83/139/25 82/138/24 94/150/41
f 109/165/42 103/159/6 102/158/6 110/166/43
f 111/167/44 105/161/6 103/159/6 109/165/42
f 95/151/45 87/143/29 86/142/28 96/152/46
f 112/168/47 113/169/48 105/161/6 111/167/44
f 106/162/6 105/161/6 113/169/48 114/170/49
f 108/164/31 107/163/6 115/171/50 116/172/51
f 68/122/4 90/146/33 89/145/32 65/119/1
f 153/226/52 147/220/13 146/219/34 154/227/53
f 155/228/54 149/222/13 148/221/13 156/229/55
f 151/224/38 149/222/13 155/228/54 157/230/56
f 96/152/46 91/147/35 92/148/36 95/151/45
f 156/229/55 148/221/13 147/220/13 153/226/52
f 139/212/13 147/220/13 148/221/13 145/218/13
f 144/217/13 140/213/13 139/212/13 145/218/13
f 70/124/9 81/137/23 84/140/26 71/125/10
f 98/154/6 101/157/6 104/160/6 99/155/6
f 107/163/6 99/155/6 104/160/6 106/162/6
f 115/171/50 107/163/6 106/162/6 114/170/49
f 66/120/2 85/141/27 88/144/30 67/121/3
f 158/231/57 159/232/58 143/216/13 152/225/39
f 144/217/13 143/216/13 159/232/58 160/233/59
f 161/234/60 140/213/13 144/217/13 160/233/59
f 141/214/14 140/213/13 161/234/60 162/235/61
f 72/126/11 73/127/15 76/132/18 69/123/8
f 117/173/62 98/154/6 97/153/5 118/174/63
f 119/175/64 101/157/6 98/154/6 117/173/62
f 120/176/65 102/158/6 101/157/6 119/175/64
f 110/166/43 102/158/6 120/176/65 121/177/66
f 94/150/41 79/135/21 78/134/20 93/149/40
f 5/9/99 19/40/100 50/103/101 49/102/102
f 51/104/103 50/103/101 19/40/100 11/21/104
f 52/105/105 51/104/103 11/21/104 27/56/106
f 53/106/107 52/105/105 27/56/106 6/11/108
f 31/64/109 54/107/110 53/106/107 6/11/108
f 14/27/111 55/108/112 54/107/110 31/64/109
f 22/46/113 56/110/114 55/109/112 14/28/111
f 57/111/115 56/110/114 22/46/113 4/7/116
f 28/58/117 58/112/118 57/111/115 4/7/116
f 12/23/119 59/113/120 58/112/118 28/58/117
f 20/42/121 60/114/122 59/113/120 12/23/119
f 61/115/123 60/114/122 20/42/121 3/5/124
f 21/44/125 62/116/126 61/115/123 3/5/124
f 13/25/127 63/117/128 62/116/126 21/44/125
f 32/66/129 64/118/130 63/117/128 13/25/127
f 49/102/102 64/118/130 32/66/129 5/9/99
f 57/111/115 58/112/118 66/120/2 65/119/1
f 36/75/73 37/77/75 68/122/4 67/121/3
f 41/87/83 42/89/86 70/124/9 69/123/8
f 52/105/105 53/106/107 72/126/11 71/125/10
f 54/107/110 55/108/112 74/128/16 73/127/15
f 39/82/79 40/85/81 76/132/18 75/130/17
f 63/117/128 64/118/130 78/134/20 77/133/19
f 46/97/94 47/99/95 80/136/22 79/135/21
f 43/91/88 44/93/90 82/138/24 81/137/23
f 50/103/101 51/104/103 84/140/26 83/139/25
f 59/113/120 60/114/122 86/142/28 85/141/27
f 34/71/69 35/73/71 88/144/30 87/143/29
f 55/109/112 56/110/114 89/145/32 74/129/16
f 38/79/78 39/83/79 75/131/17 90/146/33
f 62/116/126 63/117/128 77/133/19 91/147/35
f 47/99/95 48/101/97 92/148/36 80/136/22
f 49/102/102 50/103/101 83/139/25 93/149/40
f 44/93/90 45/95/91 94/150/41 82/138/24
f 33/69/70 34/71/69 87/143/29 95/151/45
f 60/114/122 61/115/123 96/152/46 86/142/28
f 37/77/75 38/79/78 90/146/33 68/122/4
f 56/110/114 57/111/115 65/119/1 89/145/32
f 61/115/123 62/116/126 91/147/35 96/152/46
f 48/101/97 33/69/70 95/151/45 92/148/36
f 42/89/86 43/91/88 81/137/23 70/124/9
f 51/104/103 52/105/105 71/125/10 84/140/26
f 58/112/118 59/113/120 85/141/27 66/120/2
f 35/73/71 36/75/73 67/121/3 88/144/30
f 53/106/107 54/107/110 73/127/15 72/126/11
f 40/85/81 41/87/83 69/123/8 76/132/18
f 45/95/91 46/97/94 79/135/21 94/150/41
f 64/118/130 49/102/102 93/149/40 78/134/20
f 14/29/111 31/65/109 97/153/5 100/156/7
f 22/47/113 14/29/111 100/156/7 108/164/31
f 32/67/129 13/26/127 109/165/42 110/166/43
f 13/26/127 21/45/125 111/167/44 109/165/42
f 3/6/124 20/43/121 113/169/48 112/168/47
f 21/45/125 3/6/124 112/168/47 111/167/44
f 20/43/121 12/24/119 114/170/49 113/169/48
f 28/59/117 4/8/116 116/172/51 115/171/50
f 4/8/116 22/47/113 108/164/31 116/172/51
f 12/24/119 28/59/117 115/171/50 114/170/49
f 31/65/109 6/12/108 118/174/63 97/153/5
f 6/12/108 27/57/106 117/173/62 118/174/63
f 27/57/106 11/22/104 119/175/64 117/173/62
f 11/22/104 19/41/100 120/176/65 119/175/64
f 19/41/100 5/10/99 121/177/66 120/176/65
f 5/10/99 32/67/129 110/166/43 121/177/66
f 30/63/82 15/32/80 122/178/131 123/181/132
f 15/33/80 23/49/77 124/183/133 122/179/131
f 24/51/98 16/35/96 125/185/134 126/187/135
f 16/35/96 29/61/93 127/189/136 125/185/134
f 23/49/77 2/4/76 129/193/137 124/183/133
f 2/4/76 25/53/74 128/191/138 129/193/137
f 9/18/72 17/37/68 130/195/139 131/197/140
f 17/37/68 1/2/67 132/199/141 130/195/139
f 1/2/67 24/51/98 126/187/135 132/199/141
f 25/53/74 9/18/72 131/197/140 128/191/138
f 7/14/92 18/39/89 134/203/142 133/201/143
f 29/61/93 7/14/92 133/201/143 127/189/136
f 18/39/89 10/20/87 135/205/144 134/203/142
f 10/20/87 26/55/85 136/207/145 135/205/144
f 26/55/85 8/16/84 137/209/146 136/207/145
f 8/16/84 30/63/82 123/181/132 137/209/146
f 123/182/132 122/180/131 138/211/12 141/214/14
f 122/180/131 124/184/133 146/219/34 138/211/12
f 126/188/135 125/186/134 150/223/37 151/224/38
f 125/186/134 127/190/136 152/225/39 150/223/37
f 124/184/133 129/194/137 154/227/53 146/219/34
f 129/194/137 128/192/138 153/226/52 154/227/53
f 131/198/140 130/196/139 155/228/54 156/229/55
f 130/196/139 132/200/141 157/230/56 155/228/54
f 132/200/141 126/188/135 151/224/38 157/230/56
f 128/192/138 131/198/140 156/229/55 153/226/52
f 133/202/143 134/204/142 159/232/58 158/231/57
f 127/190/136 133/202/143 158/231/57 152/225/39
f 134/204/142 135/206/144 160/233/59 159/232/58
f 135/206/144 136/208/145 161/234/60 160/233/59
f 136/208/145 137/210/146 162/235/61 161/234/60
f 137/210/146 123/182/132 141/214/14 162/235/61
usemtl lambert2
f 1/1/67 17/36/68 34/70/69 33/68/70
f 35/72/71 34/70/69 17/36/68 9/17/72
f 36/74/73 35/72/71 9/17/72 25/52/74
f 37/76/75 36/74/73 25/52/74 2/3/76
f 2/3/76 23/48/77 38/78/78 37/76/75
f 39/80/79 38/78/78 23/48/77 15/30/80
f 40/84/81 39/81/79 15/31/80 30/62/82
f 41/86/83 40/84/81 30/62/82 8/15/84
f 26/54/85 42/88/86 41/86/83 8/15/84
f 10/19/87 43/90/88 42/88/86 26/54/85
f 18/38/89 44/92/90 43/90/88 10/19/87
f 45/94/91 44/92/90 18/38/89 7/13/92
f 7/13/92 29/60/93 46/96/94 45/94/91
f 47/98/95 46/96/94 29/60/93 16/34/96
f 48/100/97 47/98/95 16/34/96 24/50/98
f 33/68/70 48/100/97 24/50/98 1/1/67
