# Blender 3.5.1
# www.blender.org
mtllib vela.mtl
o Candle_0
v -0.121463 0.465390 -0.022409
v -0.040503 0.616850 -0.022409
v -0.067203 0.565660 -0.103289
v -0.129753 0.465390 -0.110449
v -0.035233 0.465390 -0.128699
v -0.010073 0.619860 -0.101709
v 0.060407 0.572450 -0.103289
v 0.060237 0.465460 -0.110449
v 0.074707 0.466020 -0.022409
v 0.065837 0.623030 -0.022409
v 0.061077 0.572450 0.058471
v 0.060237 0.465460 0.065631
v -0.005203 0.465390 0.083881
v 0.029647 0.619860 0.056891
v -0.016043 0.565660 0.058471
v -0.087463 0.465390 0.065631
v -0.035263 0.344740 -0.022409
v 0.016037 0.377040 -0.022409
v 0.014387 0.387820 0.025821
v -0.035263 0.376230 0.027851
v -0.013903 0.709020 -0.022409
v -0.084893 0.387820 0.025821
v -0.086563 0.377040 -0.022409
v -0.084913 0.387820 -0.070639
v -0.035263 0.376230 -0.072669
v 0.014387 0.387820 -0.070639
v -0.121463 0.465390 -0.022409
v 0.092587 0.551520 -0.022409
v 0.087947 0.609060 -0.022409
v 0.101497 0.592100 -0.057409
v 0.097297 0.551520 -0.060509
v 0.117677 0.551520 -0.068399
v 0.117827 0.609060 -0.056719
v 0.128567 0.592100 -0.057409
v 0.132577 0.551520 -0.060509
v 0.134567 0.551520 -0.022409
v 0.124967 0.609060 -0.022409
v 0.128567 0.592100 0.012591
v 0.132577 0.551520 0.015691
v 0.117677 0.551520 0.023581
v 0.117827 0.609060 0.011901
v 0.101497 0.592100 0.012591
v 0.097297 0.551520 0.015691
v 0.101387 0.499310 -0.022409
v 0.115487 0.513290 -0.022409
v 0.116197 0.517950 -0.001539
v 0.106667 0.512940 -0.000659
v 0.100947 0.640980 -0.022409
v 0.087947 0.609060 -0.022409
v 0.100947 0.640980 -0.022409
v 0.124967 0.609060 -0.022409
v 0.095047 0.513290 -0.022409
v 0.096787 0.517950 -0.001539
v 0.096787 0.517950 -0.043279
v 0.106667 0.512940 -0.044159
v 0.101387 0.499310 -0.022409
v 0.095047 0.513290 -0.022409
v 0.116197 0.517950 -0.043279
v 0.115487 0.513290 -0.022409
v 0.134567 0.551520 -0.022409
v 0.092587 0.551520 -0.022409
v -0.081153 0.640660 -0.020049
v -0.057103 0.692730 -0.013519
v -0.081853 0.680390 0.016991
v -0.092493 0.640880 0.016621
v -0.112723 0.647830 0.021141
v -0.090943 0.702060 0.015441
v -0.106783 0.690020 0.012691
v -0.124993 0.653440 0.011021
v -0.119803 0.655600 -0.026719
v -0.091193 0.705910 -0.019399
v -0.093893 0.692700 -0.056049
v -0.110963 0.656350 -0.063819
v -0.095783 0.651350 -0.069209
v -0.078303 0.704680 -0.051969
v -0.068973 0.683060 -0.051749
v -0.078473 0.643790 -0.058219
v -0.107193 0.595040 -0.026709
v -0.115373 0.613120 -0.027539
v -0.110583 0.618520 -0.047679
v -0.103373 0.610480 -0.047539
v -0.058113 0.727170 -0.012369
v -0.057103 0.692730 -0.013519
v -0.058113 0.727170 -0.012369
v -0.091193 0.705910 -0.019399
v -0.096553 0.605840 -0.024289
v -0.092713 0.611610 -0.044599
v -0.100393 0.610010 -0.003599
v -0.111383 0.608820 -0.004809
v -0.107193 0.595040 -0.026709
v -0.096553 0.605840 -0.024289
v -0.118273 0.616930 -0.006689
v -0.115373 0.613120 -0.027539
v -0.119803 0.655600 -0.026719
v -0.081153 0.640660 -0.020049
v 0.023227 0.328270 -0.080899
v 0.031427 0.320290 -0.089189
v -0.035263 0.320290 -0.116809
v -0.035263 0.328270 -0.105129
v -0.090973 0.236430 0.033301
v -0.098773 0.162450 0.041011
v -0.125083 0.230520 -0.022499
v -0.114053 0.236430 -0.022409
v 0.047457 0.328270 -0.022409
v 0.059047 0.320290 -0.022499
v -0.090973 0.236430 -0.078119
v -0.098773 0.190760 -0.086019
v -0.035263 0.230520 -0.112329
v -0.035263 0.236430 -0.101199
v 0.023227 0.328270 0.036081
v 0.031427 0.320290 0.044181
v 0.028247 0.230520 -0.086019
v 0.020447 0.236430 -0.078119
v -0.035263 0.328270 0.060311
v -0.035263 0.320290 0.071811
v 0.043527 0.236430 -0.022409
v 0.051687 0.183170 -0.020509
v 0.028247 0.249710 0.041011
v 0.020447 0.236430 0.033301
v -0.117983 0.328270 -0.022409
v -0.097133 0.314930 -0.022409
v -0.079013 0.314930 -0.066159
v -0.093753 0.328270 -0.080899
v 0.008487 0.314930 -0.066159
v 0.026607 0.314930 -0.022409
v 0.008487 0.314930 0.021341
v -0.035263 0.314930 0.039461
v -0.093753 0.328270 0.036081
v -0.079013 0.314930 0.021341
v -0.093753 0.328270 -0.080899
v -0.079013 0.314930 -0.066159
v -0.035263 0.314930 -0.084279
v -0.035263 0.324200 -0.033669
v -0.027303 0.324200 -0.030369
v -0.024003 0.324200 -0.022409
v -0.027303 0.324200 -0.014449
v -0.035263 0.324200 -0.011149
v -0.043223 0.324200 -0.014449
v -0.046523 0.324200 -0.022409
v -0.043223 0.324200 -0.030369
v -0.043223 0.324200 -0.030369
v -0.040783 0.361670 -0.016889
v -0.043073 0.361670 -0.022409
v -0.040783 0.361670 -0.027929
v -0.035263 0.361670 -0.030219
v -0.029743 0.361670 -0.027929
v -0.027453 0.361670 -0.022409
v -0.029743 0.361670 -0.016889
v -0.035263 0.361670 -0.014599
v -0.040783 0.361670 -0.027929
v -0.082623 0.030740 -0.069769
v -0.090973 0.236430 -0.078119
v -0.035263 0.236430 -0.101199
v -0.035263 0.030740 -0.089389
v -0.082623 0.030740 0.024951
v -0.090973 0.236430 0.033301
v -0.114053 0.236430 -0.022409
v -0.102243 0.030740 -0.022409
v 0.012097 0.030740 0.024951
v 0.020447 0.236430 0.033301
v -0.035263 0.236430 0.056381
v -0.035263 0.030740 0.044571
v 0.012097 0.030740 -0.069769
v 0.020447 0.236430 -0.078119
v 0.043527 0.236430 -0.022409
v 0.031717 0.030740 -0.022409
v -0.090973 0.236430 -0.078119
v -0.082623 0.030740 -0.069769
v -0.067023 0.142060 0.054171
v -0.035263 0.162450 0.067321
v -0.101953 0.320290 0.044181
v -0.129573 0.320290 -0.022499
v -0.101953 0.320290 -0.089189
v -0.098773 0.190760 -0.086019
v 0.041407 0.174960 -0.054259
v -0.101953 0.320290 -0.089189
v -0.035263 0.236430 0.056381
v -0.090973 0.236430 -0.078119
v 0.024117 0.000000 -0.081789
v -0.035263 0.000000 -0.106389
v 0.024117 0.000000 0.036971
v 0.048717 0.000000 -0.022409
v -0.119373 0.000000 0.036971
v -0.035263 0.000000 0.061571
v -0.094643 0.000000 -0.081789
v -0.119243 0.000000 -0.022409
v -0.094643 0.000000 -0.081789
vn -0.0179 -0.9989 0.0433
vn 0.2572 -0.9428 0.2122
vn 0.0069 0.4088 0.9126
vn -0.6487 0.4096 0.6414
vn -0.2920 -0.9561 0.0230
vn -0.0521 -0.9227 -0.3820
vn 0.4647 -0.6709 -0.5779
vn 0.6498 0.4056 -0.6429
vn 0.9152 0.4030 0.0055
vn 0.1313 -0.9911 0.0209
vn -0.1368 -0.9703 0.1995
vn -0.0672 -0.9599 -0.2721
vn -0.0480 -0.9427 -0.3302
vn 0.3758 -0.9112 -0.1689
vn -0.9791 0.0719 0.1901
vn -0.8555 0.4812 0.1909
vn -0.6626 0.4313 -0.6123
vn -0.8039 -0.0553 -0.5923
vn -0.0204 -0.1908 -0.9814
vn -0.1313 0.5794 -0.8044
vn 0.6904 0.2490 -0.6793
vn 0.6842 -0.2508 -0.6849
vn 0.9646 -0.2636 -0.0013
vn 0.8748 0.4784 -0.0764
vn 0.7311 0.2062 0.6504
vn 0.7045 -0.2633 0.6590
vn 0.0065 -0.1821 0.9833
vn 0.1225 0.5769 0.8075
vn -0.5268 0.3521 0.7737
vn -0.6509 -0.0084 0.7591
vn -0.0000 -1.0000 -0.0000
vn 0.6329 -0.7743 -0.0000
vn 0.5191 -0.6957 0.4964
vn -0.0123 -0.7622 0.6473
vn -0.1516 0.9876 0.0399
vn -0.6087 -0.5683 0.5536
vn -0.7038 -0.7069 0.0704
vn -0.5667 -0.6734 -0.4747
vn -0.0002 -0.7681 -0.6404
vn 0.5085 -0.6909 -0.5139
vn -0.9997 -0.0256 -0.0000
vn -0.9497 0.3132 -0.0000
vn -0.6829 0.1907 -0.7051
vn -0.7120 -0.1183 -0.6921
vn 0.0722 -0.1827 -0.9805
vn 0.1891 0.6363 -0.7479
vn 0.7970 0.2700 -0.5402
vn 0.8039 -0.1978 -0.5609
vn 0.9865 -0.1637 -0.0000
vn 0.9019 0.4319 -0.0000
vn 0.7970 0.2700 0.5402
vn 0.8039 -0.1978 0.5609
vn 0.0722 -0.1827 0.9805
vn 0.1891 0.6363 0.7479
vn -0.6829 0.1908 0.7052
vn -0.7120 -0.1183 0.6921
vn -0.1339 -0.9910 -0.0000
vn 0.7634 -0.6459 -0.0000
vn 0.6783 -0.6208 0.3931
vn -0.0025 -0.7668 0.6418
vn -0.1362 0.9907 -0.0000
vn -0.9199 -0.3920 -0.0000
vn -0.7873 -0.3770 0.4878
vn -0.7874 -0.3770 -0.4878
vn -0.0025 -0.7668 -0.6418
vn -0.9199 -0.3921 -0.0000
vn 0.6783 -0.6208 -0.3931
vn 0.9118 -0.3798 0.1561
vn 0.9822 -0.0457 0.1823
vn 0.5646 -0.0919 0.8202
vn 0.4876 -0.3904 0.7809
vn -0.3097 -0.1823 0.9332
vn -0.0932 0.6328 0.7687
vn -0.7406 0.5152 0.4312
vn -0.9115 0.0801 0.4033
vn -0.9647 0.1983 -0.1731
vn -0.6821 0.7244 -0.0997
vn -0.5418 0.5565 -0.6299
vn -0.7050 0.1230 -0.6984
vn 0.0512 -0.1074 -0.9929
vn 0.1821 0.6900 -0.7005
vn 0.8242 -0.0381 -0.5650
vn 0.7425 -0.3376 -0.5786
vn -0.2173 -0.9729 -0.0786
vn -0.9250 -0.3313 -0.1862
vn -0.7656 -0.3231 -0.5563
vn -0.1430 -0.6924 -0.7072
vn 0.4659 0.8765 0.1214
vn 0.4658 0.8765 0.1214
vn -0.6821 0.7244 -0.0996
vn 0.7124 -0.6936 0.1065
vn 0.6853 -0.6137 -0.3921
vn 0.5057 -0.6509 0.5661
vn -0.3793 -0.7414 0.5536
vn -0.9103 -0.3532 0.2159
vn -0.9647 0.1983 -0.1730
vn 0.1068 0.9886 -0.1060
vn 0.0031 0.4051 -0.9143
vn -0.0000 0.9887 -0.1500
vn -0.8080 -0.5890 -0.0146
vn 0.2189 -0.9747 -0.0456
vn 0.1521 0.9884 0.0009
vn 0.0618 -0.9963 0.0603
vn -0.1799 -0.9671 -0.1796
vn 0.1150 -0.7296 -0.6742
vn 0.1956 -0.9671 -0.1626
vn 0.1081 0.9881 0.1091
vn 0.6503 0.4021 0.6445
vn -0.0000 0.9880 0.1542
vn 0.6846 -0.2067 0.6990
vn 0.0539 -0.9974 0.0468
vn -0.1521 0.9884 0.0009
vn 0.2773 0.9608 -0.0000
vn 0.1959 0.9608 0.1959
vn -0.1069 0.9886 -0.1059
vn -0.1961 0.9608 0.1961
vn -0.2773 0.9608 -0.0000
vn -0.1961 0.9608 -0.1961
vn -0.0000 0.9608 -0.2773
vn -0.1081 0.9881 0.1091
vn 0.1961 0.9608 -0.1961
vn -0.0000 0.9608 0.2773
vn -0.0000 0.7578 -0.6525
vn 0.4615 0.7576 -0.4615
vn 0.6525 0.7578 -0.0000
vn 0.4615 0.7576 0.4615
vn -0.0000 0.7578 0.6525
vn -0.4615 0.7576 0.4615
vn -0.6525 0.7578 -0.0000
vn -0.4615 0.7577 -0.4615
vn -0.7041 0.0917 0.7041
vn -0.9958 0.0917 -0.0000
vn -0.7041 0.0917 -0.7041
vn -0.0000 0.0917 -0.9958
vn 0.7041 0.0917 -0.7041
vn 0.9958 0.0917 -0.0000
vn 0.7041 0.0917 0.7041
vn -0.0000 0.0917 0.9958
vn -0.6868 0.2382 -0.6867
vn 0.0618 -0.9963 0.0604
vn 0.1957 -0.9671 -0.1626
vn -0.0000 0.2382 -0.9712
vn -0.6411 0.3438 0.6862
vn -0.0481 -0.9427 -0.3303
vn 0.2189 -0.9747 -0.0457
vn -0.9513 0.3023 -0.0610
vn 0.6867 0.2382 0.6867
vn 0.0539 -0.9975 0.0468
vn 0.3758 -0.9112 -0.1688
vn 0.0211 0.2626 0.9647
vn 0.6867 0.2382 -0.6867
vn 0.9712 0.2382 -0.0000
vn 0.0657 -0.9965 0.0510
vn -0.6867 0.2382 -0.6868
vn -0.9137 0.4063 -0.0020
vn -0.6455 0.4075 -0.6459
vn -0.1799 -0.9672 -0.1796
vn -0.6456 0.4075 -0.6459
vn 0.6188 0.4839 -0.6188
vn -0.0000 0.4839 -0.8751
vn 0.6188 0.4839 0.6188
vn 0.8751 0.4839 -0.0000
vn -0.5995 0.6725 0.4340
vn 0.0322 0.5225 0.8520
vn -0.6188 0.4839 -0.6188
vn -0.8033 0.5884 -0.0917
vt 0.308090 0.100260
vt 0.262350 0.117070
vt 0.284200 0.130290
vt 0.304900 0.123570
vt 0.303240 0.137470
vt 0.271720 0.140290
vt 0.282170 0.151600
vt 0.302360 0.151910
vt 0.307530 0.175450
vt 0.261100 0.165440
vt 0.282170 0.151600
vt 0.302360 0.151910
vt 0.303240 0.137470
vt 0.271720 0.140290
vt 0.284200 0.130290
vt 0.304900 0.123570
vt 0.341620 0.135750
vt 0.334170 0.153760
vt 0.321510 0.147270
vt 0.325110 0.135880
vt 0.238780 0.135830
vt 0.321620 0.124570
vt 0.333970 0.117720
vt 0.321620 0.124570
vt 0.325110 0.135880
vt 0.321510 0.147270
vt 0.308090 0.100360
vt 0.319040 0.093900
vt 0.326310 0.077370
vt 0.315990 0.080260
vt 0.312030 0.086660
vt 0.309370 0.084280
vt 0.314920 0.075700
vt 0.311340 0.077200
vt 0.307050 0.082840
vt 0.339620 0.108730
vt 0.350270 0.094760
vt 0.340670 0.095350
vt 0.335380 0.100070
vt 0.333760 0.097870
vt 0.341880 0.091650
vt 0.337250 0.090950
vt 0.331190 0.095420
vt 0.320150 0.106020
vt 0.326010 0.108740
vt 0.328510 0.103420
vt 0.326340 0.102420
vt 0.350310 0.082010
vt 0.339220 0.080460
vt 0.323850 0.066520
vt 0.311140 0.067580
vt 0.319760 0.101100
vt 0.325570 0.100030
vt 0.307880 0.092640
vt 0.305440 0.092060
vt 0.302360 0.098510
vt 0.307290 0.098510
vt 0.304270 0.089970
vt 0.299170 0.092900
vt 0.298080 0.079330
vt 0.323400 0.089010
vt 0.319040 0.093900
vt 0.326280 0.077530
vt 0.315990 0.080260
vt 0.312030 0.086660
vt 0.309370 0.084280
vt 0.314920 0.075700
vt 0.311340 0.077200
vt 0.307050 0.082840
vt 0.339620 0.108730
vt 0.350270 0.094760
vt 0.340670 0.095350
vt 0.335420 0.100070
vt 0.333800 0.097870
vt 0.341880 0.091650
vt 0.337250 0.090950
vt 0.331190 0.095420
vt 0.320150 0.106020
vt 0.326010 0.108740
vt 0.328510 0.103420
vt 0.326340 0.102420
vt 0.350310 0.082010
vt 0.339220 0.080460
vt 0.323850 0.066520
vt 0.311140 0.067580
vt 0.319760 0.101100
vt 0.325570 0.100030
vt 0.307880 0.092640
vt 0.305440 0.092060
vt 0.302360 0.098510
vt 0.307290 0.098510
vt 0.304270 0.089970
vt 0.299170 0.092900
vt 0.298080 0.079330
vt 0.323400 0.089010
vt 0.445020 0.192190
vt 0.447230 0.194660
vt 0.457850 0.180800
vt 0.454250 0.178980
vt 0.369030 0.253560
vt 0.379900 0.231730
vt 0.343860 0.231730
vt 0.342230 0.253560
vt 0.434300 0.200650
vt 0.436320 0.203520
vt 0.507370 0.253560
vt 0.507710 0.231730
vt 0.481980 0.231730
vt 0.484670 0.253560
vt 0.419860 0.204810
vt 0.420550 0.207980
vt 0.462410 0.231730
vt 0.467320 0.253560
vt 0.403820 0.203780
vt 0.403070 0.206920
vt 0.456010 0.253560
vt 0.449710 0.231730
vt 0.426690 0.231730
vt 0.430670 0.253560
vt 0.372570 0.183210
vt 0.380590 0.178520
vt 0.374690 0.163880
vt 0.361520 0.163880
vt 0.440690 0.187910
vt 0.431210 0.195260
vt 0.419040 0.198590
vt 0.405570 0.197340
vt 0.387610 0.196750
vt 0.392110 0.190830
vt 0.458670 0.163880
vt 0.449100 0.163880
vt 0.447610 0.176310
vt 0.425910 0.169860
vt 0.423510 0.171530
vt 0.420320 0.172480
vt 0.416590 0.172680
vt 0.412650 0.172120
vt 0.408880 0.170740
vt 0.405730 0.168570
vt 0.403920 0.165050
vt 0.427240 0.163880
vt 0.411530 0.155960
vt 0.409530 0.155610
vt 0.423610 0.155110
vt 0.421640 0.155610
vt 0.419640 0.155960
vt 0.417610 0.156170
vt 0.415580 0.156250
vt 0.413550 0.156170
vt 0.407560 0.155110
vt 0.512140 0.136600
vt 0.511960 0.066660
vt 0.493460 0.066660
vt 0.494430 0.136600
vt 0.398690 0.136600
vt 0.400830 0.066660
vt 0.381910 0.066660
vt 0.379760 0.136600
vt 0.437310 0.136600
vt 0.437540 0.066660
vt 0.418970 0.066660
vt 0.418470 0.136600
vt 0.475420 0.136600
vt 0.474840 0.066660
vt 0.456190 0.066660
vt 0.456310 0.136600
vt 0.361900 0.066660
vt 0.363150 0.136600
vt 0.386090 0.231730
vt 0.392890 0.231730
vt 0.385380 0.199940
vt 0.368190 0.186120
vt 0.354070 0.163880
vt 0.300240 0.231730
vt 0.456860 0.231730
vt 0.463560 0.163880
vt 0.400730 0.253560
vt 0.307230 0.253560
vt 0.475720 0.149760
vt 0.496030 0.149760
vt 0.437150 0.149760
vt 0.456180 0.149760
vt 0.392050 0.149760
vt 0.418880 0.149760
vt 0.359080 0.149760
vt 0.377070 0.149760
vt 0.516940 0.149760
s 1
usemtl uv-set02
f 169/169/1 170/170/2 115/115/3
f 115/115/3 171/171/4 101/101/5
f 115/115/3 101/101/5 169/169/1
f 175/175/6 112/112/7 97/97/8
f 97/97/8 105/105/9 117/117/10
f 97/97/8 117/117/10 175/175/6
f 116/116/11 113/113/12 112/112/7
f 112/112/7 175/175/6 117/117/10
f 112/112/7 117/117/10 116/116/11
f 100/100/13 177/177/14 170/170/2
f 170/170/2 169/169/1 101/101/5
f 170/170/2 101/101/5 100/100/13
f 1/1/15 2/2/16 3/3/17
f 1/1/15 3/3/17 4/4/18
f 5/5/19 6/6/20 7/7/21
f 5/5/19 7/7/21 8/8/22
f 9/9/23 10/10/24 11/11/25
f 9/9/23 11/11/25 12/12/26
f 13/13/27 14/14/28 15/15/29
f 13/13/27 15/15/29 16/16/30
f 17/17/31 18/18/32 19/19/33
f 17/17/31 19/19/33 20/20/34
f 21/21/35 2/2/16 15/15/29
f 21/21/35 15/15/29 14/14/28
f 10/10/24 21/21/35 14/14/28
f 10/10/24 14/14/28 11/11/25
f 7/7/21 6/6/20 21/21/35
f 7/7/21 21/21/35 10/10/24
f 6/6/20 3/3/17 2/2/16
f 6/6/20 2/2/16 21/21/35
f 20/20/34 22/22/36 23/23/37
f 20/20/34 23/23/37 17/17/31
f 24/24/38 25/25/39 17/17/31
f 24/24/38 17/17/31 23/23/37
f 25/25/39 26/26/40 18/18/32
f 25/25/39 18/18/32 17/17/31
f 16/16/30 22/22/36 20/20/34
f 16/16/30 20/20/34 13/13/27
f 19/19/33 12/12/26 13/13/27
f 19/19/33 13/13/27 20/20/34
f 12/12/26 11/11/25 14/14/28
f 12/12/26 14/14/28 13/13/27
f 18/18/32 9/9/23 12/12/26
f 18/18/32 12/12/26 19/19/33
f 26/26/40 8/8/22 9/9/23
f 26/26/40 9/9/23 18/18/32
f 8/8/22 7/7/21 10/10/24
f 8/8/22 10/10/24 9/9/23
f 25/25/39 5/5/19 8/8/22
f 25/25/39 8/8/22 26/26/40
f 24/24/38 4/4/18 5/5/19
f 24/24/38 5/5/19 25/25/39
f 4/4/18 3/3/17 6/6/20
f 4/4/18 6/6/20 5/5/19
f 23/23/37 1/1/15 4/4/18
f 23/23/37 4/4/18 24/24/38
f 22/22/36 16/16/30 27/27/15
f 22/22/36 27/27/15 23/23/37
f 16/16/30 15/15/29 2/2/16
f 16/16/30 2/2/16 27/27/15
f 28/28/41 29/29/42 30/30/43
f 28/28/41 30/30/43 31/31/44
f 32/32/45 33/33/46 34/34/47
f 32/32/45 34/34/47 35/35/48
f 36/36/49 37/37/50 38/38/51
f 36/36/49 38/38/51 39/39/52
f 40/40/53 41/41/54 42/42/55
f 40/40/53 42/42/55 43/43/56
f 44/44/57 45/45/58 46/46/59
f 44/44/57 46/46/59 47/47/60
f 48/48/61 49/49/42 42/42/55
f 48/48/61 42/42/55 41/41/54
f 37/37/50 48/48/61 41/41/54
f 37/37/50 41/41/54 38/38/51
f 34/34/47 33/33/46 50/50/61
f 34/34/47 50/50/61 51/51/50
f 33/33/46 30/30/43 29/29/42
f 33/33/46 29/29/42 50/50/61
f 52/52/62 44/44/57 47/47/60
f 52/52/62 47/47/60 53/53/63
f 54/54/64 55/55/65 56/56/57
f 54/54/64 56/56/57 57/57/66
f 55/55/65 58/58/67 59/59/58
f 55/55/65 59/59/58 56/56/57
f 47/47/60 40/40/53 43/43/56
f 47/47/60 43/43/56 53/53/63
f 46/46/59 39/39/52 40/40/53
f 46/46/59 40/40/53 47/47/60
f 39/39/52 38/38/51 41/41/54
f 39/39/52 41/41/54 40/40/53
f 45/45/58 36/36/49 39/39/52
f 45/45/58 39/39/52 46/46/59
f 58/58/67 35/35/48 60/60/49
f 58/58/67 60/60/49 59/59/58
f 35/35/48 34/34/47 51/51/50
f 35/35/48 51/51/50 60/60/49
f 55/55/65 32/32/45 35/35/48
f 55/55/65 35/35/48 58/58/67
f 54/54/64 31/31/44 32/32/45
f 54/54/64 32/32/45 55/55/65
f 31/31/44 30/30/43 33/33/46
f 31/31/44 33/33/46 32/32/45
f 57/57/66 28/28/41 31/31/44
f 57/57/66 31/31/44 54/54/64
f 53/53/63 43/43/56 61/61/41
f 53/53/63 61/61/41 52/52/62
f 43/43/56 42/42/55 49/49/42
f 43/43/56 49/49/42 61/61/41
f 62/62/68 63/63/69 64/64/70
f 62/62/68 64/64/70 65/65/71
f 66/66/72 67/67/73 68/68/74
f 66/66/72 68/68/74 69/69/75
f 70/70/76 71/71/77 72/72/78
f 70/70/76 72/72/78 73/73/79
f 74/74/80 75/75/81 76/76/82
f 74/74/80 76/76/82 77/77/83
f 78/78/84 79/79/85 80/80/86
f 78/78/84 80/80/86 81/81/87
f 82/82/88 83/83/69 76/76/82
f 82/82/88 76/76/82 75/75/81
f 71/71/77 82/82/88 75/75/81
f 71/71/77 75/75/81 72/72/78
f 68/68/74 67/67/73 84/84/89
f 68/68/74 84/84/89 85/85/90
f 67/67/73 64/64/70 63/63/69
f 67/67/73 63/63/69 84/84/89
f 86/86/91 78/78/84 81/81/87
f 86/86/91 81/81/87 87/87/92
f 88/88/93 89/89/94 90/90/84
f 88/88/93 90/90/84 91/91/91
f 89/89/94 92/92/95 93/93/85
f 89/89/94 93/93/85 90/90/84
f 81/81/87 74/74/80 77/77/83
f 81/81/87 77/77/83 87/87/92
f 80/80/86 73/73/79 74/74/80
f 80/80/86 74/74/80 81/81/87
f 73/73/79 72/72/78 75/75/81
f 73/73/79 75/75/81 74/74/80
f 79/79/85 70/70/76 73/73/79
f 79/79/85 73/73/79 80/80/86
f 92/92/95 69/69/75 94/94/96
f 92/92/95 94/94/96 93/93/85
f 69/69/75 68/68/74 85/85/90
f 69/69/75 85/85/90 94/94/96
f 89/89/94 66/66/72 69/69/75
f 89/89/94 69/69/75 92/92/95
f 88/88/93 65/65/71 66/66/72
f 88/88/93 66/66/72 89/89/94
f 65/65/71 64/64/70 67/67/73
f 65/65/71 67/67/73 66/66/72
f 91/91/91 62/62/68 65/65/71
f 91/91/91 65/65/71 88/88/93
f 87/87/92 77/77/83 95/95/68
f 87/87/92 95/95/68 86/86/91
f 77/77/83 76/76/82 83/83/69
f 77/77/83 83/83/69 95/95/68
f 96/96/97 97/97/8 98/98/98
f 96/96/97 98/98/98 99/99/99
f 100/100/13 101/101/5 102/102/100
f 100/100/13 102/102/100 103/103/101
f 104/104/102 105/105/9 97/97/8
f 104/104/102 97/97/8 96/96/97
f 106/106/103 107/107/104 108/108/105
f 106/106/103 108/108/105 109/109/106
f 110/110/107 111/111/108 105/105/9
f 110/110/107 105/105/9 104/104/102
f 109/109/106 108/108/105 112/112/7
f 109/109/106 112/112/7 113/113/12
f 114/114/109 115/115/3 111/111/108
f 114/114/109 111/111/108 110/110/107
f 116/116/11 117/117/10 118/118/110
f 116/116/11 118/118/110 119/119/111
f 120/120/112 121/121/113 122/122/114
f 120/120/112 122/122/114 123/123/115
f 96/96/97 124/124/116 125/125/117
f 96/96/97 125/125/117 104/104/102
f 110/110/107 126/126/118 127/127/119
f 110/110/107 127/127/119 114/114/109
f 128/128/120 129/129/121 121/121/113
f 128/128/120 121/121/113 120/120/112
f 130/130/115 131/131/114 132/132/122
f 130/130/115 132/132/122 99/99/99
f 99/99/99 132/132/122 124/124/116
f 99/99/99 124/124/116 96/96/97
f 104/104/102 125/125/117 126/126/118
f 104/104/102 126/126/118 110/110/107
f 114/114/109 127/127/119 129/129/121
f 114/114/109 129/129/121 128/128/120
f 132/132/122 133/133/123 134/134/124
f 132/132/122 134/134/124 124/124/116
f 125/125/117 135/135/125 136/136/126
f 125/125/117 136/136/126 126/126/118
f 127/127/119 137/137/127 138/138/128
f 127/127/119 138/138/128 129/129/121
f 121/121/113 139/139/129 140/140/130
f 121/121/113 140/140/130 122/122/114
f 124/124/116 134/134/124 135/135/125
f 124/124/116 135/135/125 125/125/117
f 126/126/118 136/136/126 137/137/127
f 126/126/118 137/137/127 127/127/119
f 129/129/121 138/138/128 139/139/129
f 129/129/121 139/139/129 121/121/113
f 131/131/114 141/141/130 133/133/123
f 131/131/114 133/133/123 132/132/122
f 138/138/128 142/142/131 143/143/132
f 138/138/128 143/143/132 139/139/129
f 141/141/130 144/144/133 145/145/134
f 141/141/130 145/145/134 133/133/123
f 133/133/123 145/145/134 146/146/135
f 133/133/123 146/146/135 134/134/124
f 135/135/125 147/147/136 148/148/137
f 135/135/125 148/148/137 136/136/126
f 137/137/127 149/149/138 142/142/131
f 137/137/127 142/142/131 138/138/128
f 139/139/129 143/143/132 150/150/133
f 139/139/129 150/150/133 140/140/130
f 134/134/124 146/146/135 147/147/136
f 134/134/124 147/147/136 135/135/125
f 136/136/126 148/148/137 149/149/138
f 136/136/126 149/149/138 137/137/127
f 151/151/139 152/152/140 153/153/141
f 151/151/139 153/153/141 154/154/142
f 155/155/143 156/156/144 157/157/145
f 155/155/143 157/157/145 158/158/146
f 159/159/147 160/160/148 161/161/149
f 159/159/147 161/161/149 162/162/150
f 163/163/151 164/164/12 165/165/11
f 163/163/151 165/165/11 166/166/152
f 158/158/146 157/157/145 167/167/153
f 158/158/146 167/167/153 168/168/154
f 162/162/150 161/161/149 156/156/144
f 162/162/150 156/156/144 155/155/143
f 166/166/152 165/165/11 160/160/148
f 166/166/152 160/160/148 159/159/147
f 154/154/142 153/153/141 164/164/12
f 154/154/142 164/164/12 163/163/151
f 108/108/105 98/98/98 97/97/8
f 108/108/105 97/97/8 112/112/7
f 117/117/10 105/105/9 111/111/108
f 117/117/10 111/111/108 118/118/110
f 102/102/100 172/172/155 173/173/156
f 102/102/100 173/173/156 174/174/157
f 118/118/110 111/111/108 115/115/3
f 118/118/110 115/115/3 170/170/2
f 101/101/5 171/171/4 172/172/155
f 101/101/5 172/172/155 102/102/100
f 107/107/104 176/176/158 98/98/98
f 107/107/104 98/98/98 108/108/105
f 119/119/111 118/118/110 170/170/2
f 119/119/111 170/170/2 177/177/14
f 99/99/99 98/98/98 176/176/158
f 99/99/99 176/176/158 130/130/115
f 123/123/115 173/173/156 172/172/155
f 123/123/115 172/172/155 120/120/112
f 120/120/112 172/172/155 171/171/4
f 120/120/112 171/171/4 128/128/120
f 103/103/101 102/102/100 174/174/157
f 103/103/101 174/174/157 178/178/103
f 128/128/120 171/171/4 115/115/3
f 128/128/120 115/115/3 114/114/109
f 163/163/151 179/179/159 180/180/160
f 163/163/151 180/180/160 154/154/142
f 159/159/147 181/181/161 182/182/162
f 159/159/147 182/182/162 166/166/152
f 155/155/143 183/183/163 184/184/164
f 155/155/143 184/184/164 162/162/150
f 168/168/154 185/185/165 186/186/166
f 168/168/154 186/186/166 158/158/146
f 166/166/152 182/182/162 179/179/159
f 166/166/152 179/179/159 163/163/151
f 162/162/150 184/184/164 181/181/161
f 162/162/150 181/181/161 159/159/147
f 158/158/146 186/186/166 183/183/163
f 158/158/146 183/183/163 155/155/143
f 154/154/142 180/180/160 187/187/165
f 154/154/142 187/187/165 151/151/139
